<?xml version="1.0" standalone="no"?>
<!DOCTYPE svg PUBLIC "-//W3C//DTD SVG 20010904//EN"
 "http://www.w3.org/TR/2001/REC-SVG-20010904/DTD/svg10.dtd">
<svg version="1.0" xmlns="http://www.w3.org/2000/svg"
 width="734.000000pt" height="432.000000pt" viewBox="0 0 734.000000 432.000000"
 preserveAspectRatio="xMidYMid meet">
<metadata>
Created by potrace 1.16, written by Peter Selinger 2001-2019
</metadata>
<g transform="translate(0.000000,432.000000) scale(0.100000,-0.100000)"
fill="#000000" stroke="none">
<path d="M2870 2160 l0 -2150 350 0 350 0 0 2150 0 2150 -350 0 -350 0 0
-2150z"/>
<path d="M3770 2160 l0 -2150 350 0 350 0 0 2150 0 2150 -350 0 -350 0 0
-2150z"/>
<path d="M11 3586 c2 -2 373 -322 824 -711 451 -388 820 -710 820 -715 0 -5
-369 -327 -820 -715 -451 -389 -822 -709 -824 -711 -2 -2 140 -4 315 -4 l320
0 824 710 c454 391 825 715 825 720 0 5 -371 329 -825 720 l-824 710 -320 0
c-175 0 -317 -2 -315 -4z"/>
<path d="M5870 2880 c-454 -391 -825 -715 -825 -720 0 -5 371 -329 825 -720
l824 -710 320 0 c175 0 317 2 315 4 -2 2 -373 322 -824 711 -451 388 -820 710
-820 715 0 5 369 327 820 715 451 389 822 709 824 711 2 2 -140 4 -315 4
l-320 0 -824 -710z"/>
</g>
</svg>
